<svg width="60" height="52" viewBox="0 0 60 52" fill="none" xmlns="http://www.w3.org/2000/svg">
<g clip-path="url(#clip0_115_59141)">
<path d="M44.9919 0C37.8776 12.3119 33.9469 18.4515 29.9838 18.4515C26.0206 18.4515 22.0899 12.3119 15.0081 0C22.0899 12.3119 25.4683 18.8089 23.4867 22.2198C21.5051 25.6308 14.196 25.9881 0 25.9881C14.7158 25.9881 22.0249 26.3454 23.6816 30.1137C25.2409 33.6221 21.8625 40.0866 15.0081 51.9762C22.1224 39.6643 26.0531 33.5246 30.0162 33.5246C33.9794 33.5246 37.9101 39.6643 45.0244 51.9762C37.4878 38.8847 34.1743 32.3877 36.9681 29.1391C39.4369 26.2805 46.7136 25.9881 60.0325 25.9881C45.0244 25.9881 37.7152 25.5983 36.2534 21.6026C34.9215 18.0292 38.2999 11.5972 44.9919 0Z" fill="#FDFDFF"/>
</g>
<defs>
<clipPath id="clip0_115_59141">
<rect width="60" height="51.9762" fill="white"/>
</clipPath>
</defs>
</svg>
