<svg width="60" height="32" viewBox="0 0 60 32" fill="none" xmlns="http://www.w3.org/2000/svg">
<path d="M43.8809 11.5709L44.8621 12.9979C45.4168 13.8047 46.306 14.3181 47.2821 14.3951L49.0086 14.5313L47.5815 15.5125C46.7747 16.0672 46.2613 16.9565 46.1843 17.9326L46.0481 19.659L45.067 18.232C44.5122 17.4252 43.623 16.9117 42.6469 16.8347L40.9204 16.6985L42.3475 15.7174C43.1543 15.1626 43.6677 14.2734 43.7447 13.2973L43.8809 11.5709Z" fill="#0F0F1B"/>
<path d="M0.902442 30.9409C0.300814 30.9409 0 30.769 0 30.4252V30.3393C0 30.1101 0.257841 29.7949 0.773522 29.3938C1.31785 28.9641 1.59002 28.4771 1.59002 27.9327V3.43788C1.59002 2.8649 1.31785 2.37786 0.773522 1.97678C0.257841 1.54704 0 1.23191 0 1.03136V0.945416C0 0.601628 0.300814 0.429734 0.902442 0.429734H10.3136C15.1553 0.429734 19.2521 1.83353 22.604 4.64113C25.9846 7.42008 27.6749 11.0155 27.6749 15.4275C27.6749 20.1545 26.1708 23.9219 23.1627 26.7295C20.1832 29.5371 16.4159 30.9409 11.8607 30.9409H0.902442ZM7.43441 29.179H11.6028C15.0407 29.179 17.9056 28.076 20.1975 25.87C22.5181 23.6354 23.6784 20.6129 23.6784 16.8026C23.6784 12.4766 22.2746 8.96713 19.467 6.27412C16.688 3.55247 13.4077 2.19165 9.62605 2.19165H6.61791C5.81574 2.19165 5.41465 2.65003 5.41465 3.5668V26.8154C5.41465 27.5603 5.58655 28.1476 5.93034 28.5773C6.30277 28.9784 6.80413 29.179 7.43441 29.179Z" fill="#0F0F1B"/>
<path d="M45.389 31.3706C40.9771 31.3706 37.3243 29.8092 34.4308 26.6865C31.5373 23.5638 30.0905 19.8681 30.0905 15.5994C30.0905 11.1015 31.4943 7.37711 34.3019 4.42626C37.1095 1.47542 40.7049 0 45.0882 0C49.4142 0 52.981 1.54704 55.7886 4.64113C58.5962 7.73522 60 11.4739 60 15.8572C60 20.1259 58.5819 23.7786 55.7456 26.8154C52.938 29.8522 49.4858 31.3706 45.389 31.3706ZM46.3344 29.5228C49.142 29.5228 51.4769 28.4198 53.3391 26.2138C55.2013 24.0078 56.1324 21.4151 56.1324 18.4356C56.1324 13.7945 54.9721 9.86957 52.6515 6.66089C50.331 3.4522 47.3658 1.84786 43.756 1.84786C40.8911 1.84786 38.5419 2.90787 36.7084 5.02789C34.8749 7.14792 33.9581 9.79795 33.9581 12.978C33.9581 17.5332 35.1184 21.4294 37.4389 24.6668C39.7882 27.9041 42.7533 29.5228 46.3344 29.5228Z" fill="#0F0F1B"/>
</svg>
