<svg width="76" height="52" viewBox="0 0 76 52" fill="none" xmlns="http://www.w3.org/2000/svg">
<path d="M51.8809 21.5709L52.8621 22.9979C53.4168 23.8047 54.306 24.3181 55.2821 24.3951L57.0086 24.5313L55.5815 25.5125C54.7747 26.0672 54.2613 26.9565 54.1843 27.9326L54.0481 29.659L53.067 28.232C52.5122 27.4252 51.623 26.9117 50.6469 26.8347L48.9204 26.6985L50.3475 25.7174C51.1543 25.1626 51.6677 24.2734 51.7447 23.2973L51.8809 21.5709Z" fill="#FDFDFF"/>
<path d="M8.90244 40.9409C8.30081 40.9409 8 40.769 8 40.4252V40.3393C8 40.1101 8.25784 39.7949 8.77352 39.3938C9.31785 38.9641 9.59002 38.4771 9.59002 37.9327V13.4379C9.59002 12.8649 9.31785 12.3779 8.77352 11.9768C8.25784 11.547 8 11.2319 8 11.0314V10.9454C8 10.6016 8.30081 10.4297 8.90244 10.4297H18.3136C23.1553 10.4297 27.2521 11.8335 30.604 14.6411C33.9846 17.4201 35.6749 21.0155 35.6749 25.4275C35.6749 30.1545 34.1708 33.9219 31.1627 36.7295C28.1832 39.5371 24.4159 40.9409 19.8607 40.9409H8.90244ZM15.4344 39.179H19.6028C23.0407 39.179 25.9056 38.076 28.1975 35.87C30.5181 33.6354 31.6784 30.6129 31.6784 26.8026C31.6784 22.4766 30.2746 18.9671 27.467 16.2741C24.688 13.5525 21.4077 12.1916 17.6261 12.1916H14.6179C13.8157 12.1916 13.4147 12.65 13.4147 13.5668V36.8154C13.4147 37.5603 13.5865 38.1476 13.9303 38.5773C14.3028 38.9784 14.8041 39.179 15.4344 39.179Z" fill="#FDFDFF"/>
<path d="M53.389 41.3706C48.9771 41.3706 45.3243 39.8092 42.4308 36.6865C39.5373 33.5638 38.0905 29.8681 38.0905 25.5994C38.0905 21.1015 39.4943 17.3771 42.3019 14.4263C45.1095 11.4754 48.7049 10 53.0882 10C57.4142 10 60.981 11.547 63.7886 14.6411C66.5962 17.7352 68 21.4739 68 25.8572C68 30.1259 66.5819 33.7786 63.7456 36.8154C60.938 39.8522 57.4858 41.3706 53.389 41.3706ZM54.3344 39.5228C57.142 39.5228 59.4769 38.4198 61.3391 36.2138C63.2013 34.0078 64.1324 31.4151 64.1324 28.4356C64.1324 23.7945 62.9721 19.8696 60.6515 16.6609C58.331 13.4522 55.3658 11.8479 51.756 11.8479C48.8911 11.8479 46.5419 12.9079 44.7084 15.0279C42.8749 17.1479 41.9581 19.7979 41.9581 22.978C41.9581 27.5332 43.1184 31.4294 45.4389 34.6668C47.7882 37.9041 50.7533 39.5228 54.3344 39.5228Z" fill="#FDFDFF"/>
</svg>
